# xmcd
#
# Track frame offsets: 
#        150
#        24516
#        46407
#        67658
#        94428
#        117735
#        145047
#        166135
#        189040
#        208921
#        227339
#        246624
#        270908
#
# Disc length: 3975 seconds
#
# Revision: 3
# Processed by: cddbd v1.5.2PL0 Copyright (c) Steve Scherf et al.
# Submitted via: ExactAudioCopyFreeDBPlugin 1.0
#
DISCID=ae0f850d
DTITLE=The Isley Brothers - Showdown
DYEAR=1978
DGENRE=Rhythm and Blues
TTITLE0=Showdown (Parts 1 and 2)
TTITLE1=Groove with You (Parts 1 and 2)
TTITLE2=Ain't Givin' Up No Love
TTITLE3=Rockin' with Fire (Parts 1 and 2)
TTITLE4=Take Me to the Next Phase (Parts 1 and 2)
TTITLE5=Coolin' Me Out (Parts 1 and 2)
TTITLE6=Fun and Games
TTITLE7=Love Fever (Parts 1 and 2)
TTITLE8=Showdown (Part 1) (single version)
TTITLE9=Groove with You (Part 1) (single version)
TTITLE10=Take Me to the Next Phase (Part 1) (single version)
TTITLE11=Take Me to the Next Phase (Parts 1 and 2) (alternate version)
TTITLE12=Showdown (rehearsal)
EXTD=
EXTT0=
EXTT1=
EXTT2=
EXTT3=
EXTT4=
EXTT5=
EXTT6=
EXTT7=
EXTT8=
EXTT9=
EXTT10=
EXTT11=
EXTT12=
PLAYORDER=
